<?xml version="1.0" standalone="no"?>
<!DOCTYPE svg PUBLIC "-//W3C//DTD SVG 20010904//EN"
 "http://www.w3.org/TR/2001/REC-SVG-20010904/DTD/svg10.dtd">
<svg version="1.0" xmlns="http://www.w3.org/2000/svg"
 width="700.000000pt" height="700.000000pt" viewBox="0 0 700.000000 700.000000"
 preserveAspectRatio="xMidYMid meet">
<metadata>
Created by potrace 1.14, written by Peter Selinger 2001-2017
</metadata>
<g transform="translate(0.000000,700.000000) scale(0.100000,-0.100000)"
fill="#000000" stroke="none">
<path d="M1312 6818 c0 -101 -1 -199 -1 -219 l-1 -37 -207 0 c-115 0 -213 -1
-218 -1 -7 -1 -10 -442 -10 -1307 0 -805 -4 -1308 -9 -1312 -6 -3 -101 -5
-214 -5 -189 1 -204 0 -210 -17 -4 -10 -6 -109 -6 -219 l2 -201 -219 0 -219 0
0 -1313 0 -1312 215 0 c185 0 216 -2 219 -15 2 -8 4 -102 3 -209 -1 -127 2
-198 9 -205 7 -7 82 -11 217 -10 140 0 207 -3 210 -10 2 -6 3 -104 2 -219 l0
-207 2625 2 2625 3 1 210 c1 116 2 213 3 216 0 4 94 6 207 5 113 0 211 2 217
6 6 4 10 81 11 220 l1 213 215 0 215 0 3 1313 2 1312 -219 0 -218 0 -1 203 c0
111 -1 209 -1 218 -1 14 -25 16 -198 17 -109 0 -207 1 -218 1 -20 1 -20 6 -20
1307 0 1154 -2 1307 -15 1313 -8 3 -104 6 -213 5 -109 -1 -200 3 -203 7 -3 5
-5 104 -6 219 l0 210 -438 0 -439 0 1 -217 1 -218 -212 -1 c-116 -1 -215 -4
-219 -8 -4 -4 -7 -595 -7 -1313 l0 -1306 -872 -1 c-574 -1 -874 2 -876 9 -2 6
-3 596 -3 1313 1 1296 1 1302 -19 1303 -11 0 -109 1 -217 1 -194 1 -198 1
-199 22 0 12 0 110 0 219 l1 197 -439 0 -438 0 -1 -182z m1303 -4200 c7 -4 10
-154 9 -430 -1 -232 -2 -426 -3 -430 0 -5 -295 -8 -655 -8 l-653 0 -1 433 c0
237 4 434 8 437 12 7 1283 6 1295 -2z m3067 3 c4 0 7 -197 6 -436 l0 -435
-657 2 -656 3 0 430 c-1 237 2 432 6 435 6 4 1278 5 1301 1z"/>
</g>
</svg>
